# xmcd
#
# Track frame offsets: 
#        150
#        17372
#        34697
#        51277
#        69000
#        84497
#        96787
#        112097
#        126647
#        140072
#        156272
#        169240
#        183937
#        198147
#        215467
#        229247
#        245972
#        258250
#        271990
#        290447
#
# Disc length: 4085 seconds
#
# Revision: 3
# Processed by: cddbd v1.5.2PL0 Copyright (c) Steve Scherf et al.
# Submitted via: ExactAudioCopy v1.0b4
#
DISCID=250ff314
DTITLE=Agepê - 20 Super Sucessos
DYEAR=1998
DGENRE=Samba
TTITLE0=Jogo de Empate
TTITLE1=O Amigo do Rei
TTITLE2=Dor Maior
TTITLE3=Canto de Esperança
TTITLE4=Coração Aberto
TTITLE5=Menina da Beira da Praia
TTITLE6=Na Ponta do Laço
TTITLE7=Onde A Cobra È Bicho Manso
TTITLE8=Laço de Amor
TTITLE9=Canto de Guiné
TTITLE10=Eu E O Mar
TTITLE11=Tristeza
TTITLE12=Gota de Orvalho
TTITLE13=Saudade Colorida
TTITLE14=Chora
TTITLE15=A Força e O Adeus
TTITLE16=Solidão
TTITLE17=Casa Velha
TTITLE18=Kiriê
TTITLE19=Marcas de Espinho
EXTD=
EXTT0=
EXTT1=
EXTT2=
EXTT3=
EXTT4=
EXTT5=
EXTT6=
EXTT7=
EXTT8=
EXTT9=
EXTT10=
EXTT11=
EXTT12=
EXTT13=
EXTT14=
EXTT15=
EXTT16=
EXTT17=
EXTT18=
EXTT19=
PLAYORDER=
